<?xml version="1.0" encoding="utf-8"?>
<!-- Generator: Adobe Illustrator 28.1.0, SVG Export Plug-In . SVG Version: 6.00 Build 0)  -->
<svg version="1.1" id="Layer_1" xmlns="http://www.w3.org/2000/svg" xmlns:xlink="http://www.w3.org/1999/xlink" x="0px" y="0px"
	 viewBox="0 0 800 800" style="enable-background:new 0 0 800 800;" xml:space="preserve">
<style type="text/css">
	.st0{fill:#6C737D;}
</style>
<path class="st0" d="M400,0C179.1,0,0,179.1,0,400s179.1,400,400,400s400-179.1,400-400S620.9,0,400,0z M396.4,256.6l137.4,114.5
	l-22.9,27.5L373.5,284.1L396.4,256.6L396.4,256.6z M343.8,331.2l162.1,75.5l-15.1,32.4l-162.1-75.5L343.8,331.2L343.8,331.2z
	 M312.9,412.4L312.9,412.4l175,36.8l-7.4,35l-175-36.8L312.9,412.4L312.9,412.4z M302.3,493.6h178.1v35.6H302.3L302.3,493.6
	L302.3,493.6z M551.7,600.5H231.1V458l0,0l0,0h35.6v106.9h249.4V458h35.7L551.7,600.5L551.7,600.5z M540.3,364.3L433.5,220.8
	l28.7-21.3L568.9,343L540.3,364.3z"/>
</svg>
