<svg id="be564e64-ef98-41b0-a36f-7c47d8dbae3d" data-name="Layer 2" xmlns="http://www.w3.org/2000/svg" width="64" height="64" viewBox="0 0 64 64"><defs><style>.b4250855-f3bb-4546-9d8b-deba1502f56e{fill:#fff;}.f5f149a2-2b33-489b-a90e-2e63b682c026{fill:#ff5252;}</style></defs><title>close</title><path class="b4250855-f3bb-4546-9d8b-deba1502f56e" d="M35.4221,32,47.29,20.132a2.4112,2.4112,0,0,0-3.4221-3.3978L32,28.5779,20.132,16.71A2.42,2.42,0,0,0,16.71,20.132L28.5779,32,16.71,43.868A2.42,2.42,0,0,0,20.132,47.29L32,35.4221,43.868,47.29A2.42,2.42,0,0,0,47.29,43.868Z"/><path class="f5f149a2-2b33-489b-a90e-2e63b682c026" d="M32,0A32,32,0,1,0,64,32,32,32,0,0,0,32,0Zm.62,56.1051a24,24,0,1,1,24-24A24,24,0,0,1,32.62,56.1051Z"/><path class="f5f149a2-2b33-489b-a90e-2e63b682c026" d="M32.62,8.1052a24,24,0,1,0,24,24A24,24,0,0,0,32.62,8.1052ZM47.29,47.29a2.4171,2.4171,0,0,1-3.4221,0L32,35.4221,20.132,47.29A2.42,2.42,0,0,1,16.71,43.868L28.5779,32,16.71,20.132A2.42,2.42,0,0,1,20.132,16.71L32,28.5779,43.868,16.7342A2.4112,2.4112,0,0,1,47.29,20.132L35.4221,32,47.29,43.868A2.4171,2.4171,0,0,1,47.29,47.29Z"/></svg>