<svg id="a825b05f-db1e-44f2-884d-7777c2098a61" data-name="Capa 1" xmlns="http://www.w3.org/2000/svg" viewBox="0 0 64 64"><title>info</title><path d="M32,0A32,32,0,1,0,64,32,32,32,0,0,0,32,0Zm6.66,49.59c-1.65.65-3,1.15-3.94,1.49a10.43,10.43,0,0,1-3.42.51,6.82,6.82,0,0,1-4.65-1.46A4.7,4.7,0,0,1,25,46.43a12.17,12.17,0,0,1,.13-1.79,20.62,20.62,0,0,1,.39-2l2.06-7.29c.19-.7.34-1.36.47-2a9.05,9.05,0,0,0,.18-1.71,2.63,2.63,0,0,0-.57-1.94,3.24,3.24,0,0,0-2.2-.55,5.59,5.59,0,0,0-1.64.25c-.56.17-1,.32-1.44.47l.55-2.24q2-.83,3.87-1.41a11.31,11.31,0,0,1,3.5-.59A6.7,6.7,0,0,1,34.87,27a4.78,4.78,0,0,1,1.61,3.73c0,.32,0,.88-.11,1.67a11,11,0,0,1-.41,2.2l-2.05,7.26c-.17.58-.32,1.25-.46,2a10.78,10.78,0,0,0-.19,1.7,2.45,2.45,0,0,0,.64,2,3.62,3.62,0,0,0,2.24.53,6.28,6.28,0,0,0,1.7-.27,8.48,8.48,0,0,0,1.37-.46ZM38.3,20.13a5.17,5.17,0,0,1-6.92,0,4.34,4.34,0,0,1,0-6.48,5.14,5.14,0,0,1,6.92,0,4.39,4.39,0,0,1,0,6.48Z" style="fill:#fff"/></svg>