<svg id="a98040b0-475a-4904-9567-cd39859dc87b" data-name="Layer 1" xmlns="http://www.w3.org/2000/svg" viewBox="0 0 64 64"><title>logo</title><g id="a04fe082-2b99-40d1-a172-8156f985e4a9" data-name="LzMUeG.tif"><path d="M64,33.74a32,32,0,0,1-1.67,8.83,31.17,31.17,0,0,1-6.85,11.18A32.59,32.59,0,0,1,45.65,61a29.82,29.82,0,0,1-8,2.51,34,34,0,0,1-6.68.44,31.14,31.14,0,0,1-13-3.16A31.72,31.72,0,0,1,12,57c-.13-.1-.13-.15,0-.26,2.78-2.77,5.54-5.54,8.31-8.31.12-.11.18-.12.32,0a18.87,18.87,0,0,0,8.08,3.29,21.19,21.19,0,0,0,5,.18,18.58,18.58,0,0,0,6.56-1.64A20.27,20.27,0,0,0,50.46,39.69a18.12,18.12,0,0,0,1.37-5.51,24.43,24.43,0,0,0,0-4.19,2.66,2.66,0,0,1,0-.28c0-.15-.07-.18-.2-.17H39.26L56.91,11.89A30.53,30.53,0,0,1,64,30.2a1.15,1.15,0,0,1,0,.32,4.83,4.83,0,0,0,0,.76v1.38a2.19,2.19,0,0,0,0,.51v.31A.75.75,0,0,1,64,33.74Z" transform="translate(0)" style="fill:#ff5252"/><path d="M30.82,0h2.46s0,.06,0,.08a.15.15,0,0,1-.07,0,21.3,21.3,0,0,1-2.26,0,.15.15,0,0,1-.07,0A.06.06,0,0,1,30.82,0Z" transform="translate(0)" style="fill:#989898"/><path d="M64,31.28a2.21,2.21,0,0,1,0-.77s0,0,0,0Z" transform="translate(0)" style="fill:#f36a6f"/><path d="M64,33.18c0-.17-.05-.35,0-.52v.51S64,33.2,64,33.18Z" transform="translate(0)" style="fill:#f1545a"/><path d="M30.05,0V0h.46a.05.05,0,0,1,0,.08A.39.39,0,0,1,30.05,0Z" transform="translate(0)" style="fill:#dbdbdb"/><path d="M34,0V0a.27.27,0,0,1-.34,0,.05.05,0,0,1,0-.08Z" transform="translate(0)" style="fill:#dadada"/><path d="M30.51,0V0h.31V0A.2.2,0,0,1,30.51,0Z" transform="translate(0)" style="fill:#b7b7b7"/><path d="M33.59,0V0a.21.21,0,0,1-.31,0V0Z" transform="translate(0)" style="fill:#bababa"/><path d="M64,30.51h0V30.2h0Z" transform="translate(0)" style="fill:#fac1c3"/><path d="M64,33.18h0v.31a0,0,0,0,1,0,0Z" transform="translate(0)" style="fill:#f68c90"/><path d="M64,33.49h0v.26h0Z" transform="translate(0)" style="fill:#fac3c5"/><path d="M33.28.05H34A32,32,0,0,1,40.18,1,29.9,29.9,0,0,1,51.64,6.71c.16.13.32.27.5.39s.16.17,0,.27l0,0-8.23,8.24c-.15.15-.23.16-.41,0a18.42,18.42,0,0,0-8-3.35,21.63,21.63,0,0,0-5.33-.19,18.82,18.82,0,0,0-12.19,5.73A20,20,0,0,0,14.15,23a18.4,18.4,0,0,0-1.87,5.87,23.34,23.34,0,0,0-.23,3.34,19.09,19.09,0,0,0,3.64,11.36c.1.14.11.21,0,.33-2.76,2.76-5.52,5.51-8.27,8.28-.14.14-.2.13-.32,0A30.12,30.12,0,0,1,.58,38.38a31.89,31.89,0,0,1-.55-5A33.14,33.14,0,0,1,1.27,22.74a29.23,29.23,0,0,1,4.24-8.8,34.92,34.92,0,0,1,9.55-9.18A29.63,29.63,0,0,1,25.49.6,36.87,36.87,0,0,1,30.05,0h3.23Z" transform="translate(0)" style="fill:#fff"/></g></svg>