<?xml version="1.0" encoding="utf-8"?>
<!-- Generator: Adobe Illustrator 23.0.4, SVG Export Plug-In . SVG Version: 6.00 Build 0)  -->
<svg version="1.1" id="Layer_1" xmlns="http://www.w3.org/2000/svg" xmlns:xlink="http://www.w3.org/1999/xlink" x="0px" y="0px"
	 viewBox="0 0 64 64" style="enable-background:new 0 0 64 64;" xml:space="preserve">
<style type="text/css">
	.st0{fill:#D757FF;}
	.st1{fill:#3A2641;}
	.st2{display:none;opacity:0.302;}
	.st3{display:inline;}
</style>
<g id="Premiere_Pro_1_">
	<g>
		<g id="Frame_7_">
			<g>
				<rect y="0.8" class="st0" width="64" height="62.3"/>
			</g>
		</g>
		<g id="Background_7_">
			<g>
				<rect x="4.9" y="5.8" class="st1" width="54.1" height="52.3"/>
			</g>
		</g>
		<g id="Shadow2_7_" class="st2">
			<g class="st3">
				<polygon points="46.3,26.1 44.6,29.9 40.5,26.4 38.3,26.9 30,20.1 17.3,19.4 17.2,45.3 34.2,58.2 59,58.2 59,36.4 				"/>
			</g>
		</g>
		<g id="Shadow_8_" class="st2">
			<g class="st3">
				<rect x="4.9" y="5.8" width="54.1" height="1.8"/>
			</g>
		</g>
		<g id="Pr">
			<g>
				<path class="st0" d="M17.3,19.3c1.6-0.3,3.7-0.5,6.6-0.5c3.2,0,5.5,0.7,7,2.2c1.4,1.3,2.3,3.4,2.3,5.8c0,2.5-0.7,4.6-2,6
					c-1.7,1.9-4.4,2.8-7.5,2.8c-0.8,0-1.6,0-2.1-0.2v10h-4.3V19.3z M21.6,31.6c0.5,0.2,1.2,0.2,2.1,0.2c3.2,0,5.2-1.8,5.2-4.9
					c0-2.9-1.8-4.5-4.8-4.5c-1.2,0-2,0.1-2.5,0.2C21.6,22.6,21.6,31.6,21.6,31.6z"/>
				<path class="st0" d="M36.8,32.4c0-2.6,0-4.4-0.1-6.2h3.8l0.1,3.6h0.1c0.8-2.7,2.9-4.1,4.7-4.1c0.4,0,0.7,0,1,0.1v4.5
					c-0.4-0.1-0.7-0.2-1.3-0.2c-2.1,0-3.5,1.5-3.9,3.6c-0.1,0.4-0.1,0.9-0.1,1.5v9.9h-4.3V32.4L36.8,32.4z"/>
			</g>
		</g>
	</g>
</g>
</svg>
