<?xml version="1.0" encoding="utf-8"?>
<!-- Generator: Adobe Illustrator 23.0.4, SVG Export Plug-In . SVG Version: 6.00 Build 0)  -->
<svg version="1.1" id="Layer_1" xmlns="http://www.w3.org/2000/svg" xmlns:xlink="http://www.w3.org/1999/xlink" x="0px" y="0px"
	 viewBox="0 0 64 64" style="enable-background:new 0 0 64 64;" xml:space="preserve">
<style type="text/css">
	.st0{fill:#FFAA2B;}
	.st1{fill:#3B3323;}
	.st2{display:none;opacity:0.302;}
	.st3{display:inline;}
</style>
<g id="Illustrator_1_">
	<g>
		<g id="Frame_1_">
			<g>
				<rect y="0.8" class="st0" width="64" height="62.3"/>
			</g>
		</g>
		<g id="Background_1_">
			<g>
				<rect x="4.9" y="5.8" class="st1" width="54.1" height="52.3"/>
			</g>
		</g>
		<g id="Shadow2_1_" class="st2">
			<g class="st3">
				<path d="M45.8,18.3c0.1,0.1-3.6,4-3.6,4L47,26l-4.4,3.3l-11-10.6L26.3,20L23,30.6l-6,14.5l18.5,13.1H59V28.9
					C59,28.9,45.7,18.2,45.8,18.3z"/>
			</g>
		</g>
		<g id="Shadow_2_" class="st2">
			<g class="st3">
				<rect x="4.9" y="5.8" width="54.1" height="1.8"/>
			</g>
		</g>
		<g id="Ai">
			<g>
				<path class="st0" d="M24.2,37.6L22,45.1h-5l8.5-26.4h6.2l8.6,26.4H35l-2.4-7.5H24.2z M31.8,33.9l-2.1-6.5
					c-0.5-1.6-0.9-3.4-1.3-4.9h-0.1c-0.4,1.5-0.8,3.4-1.3,4.9l-2,6.5H31.8z"/>
				<path class="st0" d="M47.2,20.7c0,1.4-1.1,2.6-2.7,2.6c-1.6,0-2.7-1.1-2.7-2.6s1.1-2.6,2.7-2.6C46.2,18,47.2,19.2,47.2,20.7z
					 M42.1,45.1V26H47v19.1H42.1L42.1,45.1z"/>
			</g>
		</g>
	</g>
</g>
</svg>
