<?xml version="1.0" encoding="utf-8"?>
<!-- Generator: Adobe Illustrator 23.0.4, SVG Export Plug-In . SVG Version: 6.00 Build 0)  -->
<svg version="1.1" id="Layer_1" xmlns="http://www.w3.org/2000/svg" xmlns:xlink="http://www.w3.org/1999/xlink" x="0px" y="0px"
	 viewBox="0 0 64 64" style="enable-background:new 0 0 64 64;" xml:space="preserve">
<style type="text/css">
	.st0{fill:#A4F489;}
	.st1{fill:#3D6631;}
	.st2{display:none;opacity:0.302;}
	.st3{display:inline;}
</style>
<g id="After_Effects_1_">
	<g>
		<g id="Frame_8_">
			<g>
				<rect x="0" y="0.8" class="st0" width="64" height="62.3"/>
			</g>
		</g>
		<g id="Background_8_">
			<g>
				<rect x="4.9" y="5.8" class="st1" width="54.1" height="52.3"/>
			</g>
		</g>
		<g id="Shadow2_8_" class="st2">
			<g class="st3">
				<polygon points="48.9,27 38.2,29.1 25.7,18.8 20,19.4 11,45.2 28.2,58.2 59,58.2 59,35.1 				"/>
			</g>
		</g>
		<g id="Shadow_9_" class="st2">
			<g class="st3">
				<rect x="4.9" y="5.8" width="54.1" height="1.8"/>
			</g>
		</g>
		<path class="st0" d="M32,50c-0.5,0-1-0.1-1.4-0.4L26.2,47c-0.7-0.4-0.4-0.5-0.1-0.5c0.9-0.3,1.1-0.4,2-0.9
			c0.1-0.1,0.2-0.1,0.4,0.1l3.4,2c0.1,0.1,0.3,0.1,0.4,0l13.2-7.6c0.1-0.1,0.3-0.2,0.3-0.4V24.4c0-0.2-0.1-0.3-0.3-0.4l-13.2-7.6
			c-0.1-0.1-0.3-0.1-0.4,0L18.7,24c-0.1,0.1-0.2,0.2-0.2,0.4v15.2c0,0.2,0.1,0.3,0.2,0.4l3.6,2.1c2,1,3.1-0.2,3.1-1.3V25.7
			c0-0.2,0.2-0.4,0.4-0.4h1.7c0.2,0,0.4,0.2,0.4,0.4v15c0,2.6-1.4,4.1-3.9,4.1c-0.8,0-1.3,0-3.1-0.8l-3.4-2
			c-0.8-0.5-1.4-1.4-1.4-2.4V24.4c0-1,0.5-1.9,1.4-2.4l13.1-7.6c0.8-0.4,2-0.4,2.8,0L46.7,22c0.8,0.5,1.4,1.4,1.4,2.4v15.2
			c0,1-0.5,1.9-1.4,2.4l-13.1,7.6C32.9,49.9,32.5,50,32,50z M42.6,35c0-2.9-1.9-3.6-5.9-4.1c-4.1-0.5-4.5-0.8-4.5-1.8
			c0-0.8,0.4-1.9,3.4-1.9c2.7,0,3.7,0.5,4.1,2.4c0.1,0.2,0.2,0.3,0.4,0.3h1.7c0.1,0,0.2-0.1,0.3-0.1s0.1-0.2,0.1-0.3
			c-0.3-3.1-2.3-4.6-6.6-4.6c-3.8,0-6,1.5-6,4.3c0,2.9,2.2,3.7,5.8,4c4.3,0.4,4.7,1.1,4.7,1.9c0,1.4-1.2,2.1-4,2.1
			c-3.5,0-4.2-0.9-4.5-2.6c-0.1-0.2-0.2-0.4-0.4-0.4h-1.7c-0.2,0-0.4,0.2-0.4,0.4c0,2.2,1.2,4.9,7,4.9C40.3,39.6,42.6,37.8,42.6,35
			L42.6,35z"/>
	</g>
</g>
</svg>
