<?xml version="1.0" encoding="utf-8"?>
<!-- Generator: Adobe Illustrator 23.0.4, SVG Export Plug-In . SVG Version: 6.00 Build 0)  -->
<svg version="1.1" id="Layer_1" xmlns="http://www.w3.org/2000/svg" xmlns:xlink="http://www.w3.org/1999/xlink" x="0px" y="0px"
	 viewBox="0 0 64 64" style="enable-background:new 0 0 64 64;" xml:space="preserve">
<style type="text/css">
	.st0{fill:#7EBCF9;}
	.st1{fill:#30267E;}
	.st2{display:none;opacity:0.302;}
	.st3{display:inline;}
</style>
<g id="Photoshop_1_">
	<g>
		<g id="Frame">
			<g>
				<rect y="0.8" class="st0" width="64" height="62.3"/>
			</g>
		</g>
		<g id="Background">
			<g>
				<rect x="4.9" y="5.8" class="st1" width="54.1" height="52.3"/>
			</g>
		</g>
		<g id="Shadow2" class="st2">
			<g class="st3">
				<polygon points="47.3,26.7 39.6,28.9 29.8,19.7 18.7,20.8 18.3,30.8 15.8,45.1 36.6,58.2 59,58.2 59,35.3 				"/>
			</g>
		</g>
		<g id="Shadow_1_" class="st2">
			<g class="st3">
				<rect x="4.9" y="5.8" width="54.1" height="1.8"/>
			</g>
		</g>
		<g id="Ps">
			<g>
				<path class="st0" d="M15.8,19c1.7-0.3,4.1-0.5,7.4-0.5c3.5,0,6.1,0.7,7.8,2.2c1.6,1.3,2.6,3.4,2.6,5.8c0,2.5-0.8,4.6-2.3,6
					c-1.9,1.9-4.9,2.8-8.3,2.8c-0.9,0-1.7,0-2.4-0.2v10h-4.8V19L15.8,19z M20.5,31.3c0.6,0.2,1.4,0.2,2.4,0.2c3.6,0,5.8-1.8,5.8-4.9
					c0-2.9-2-4.5-5.4-4.5c-1.3,0-2.3,0.1-2.8,0.2C20.5,22.3,20.5,31.3,20.5,31.3z"/>
				<path class="st0" d="M35.7,40.6c1.1,0.7,3.2,1.4,4.9,1.4c2.1,0,3.1-0.9,3.1-2.1c0-1.3-0.8-2-3.1-2.8c-3.7-1.3-5.3-3.3-5.3-5.6
					c0-3.4,2.8-6,7.2-6c2.1,0,4,0.5,5.1,1.1L46.7,30c-0.8-0.5-2.4-1.1-4-1.1c-1.7,0-2.7,0.8-2.7,2c0,1.2,0.9,1.8,3.3,2.7
					c3.4,1.3,5.1,3,5.1,5.8c0,3.4-2.7,6-7.8,6c-2.3,0-4.4-0.5-5.8-1.3L35.7,40.6z"/>
			</g>
		</g>
	</g>
</g>
</svg>
