<?xml version="1.0" encoding="utf-8"?>
<!-- Generator: Adobe Illustrator 23.0.4, SVG Export Plug-In . SVG Version: 6.00 Build 0)  -->
<svg version="1.1" id="Layer_1" xmlns="http://www.w3.org/2000/svg" xmlns:xlink="http://www.w3.org/1999/xlink" x="0px" y="0px"
	 viewBox="0 0 64 64" style="enable-background:new 0 0 64 64;" xml:space="preserve">
<style type="text/css">
	.st0{fill:#14C6BD;}
	.st1{fill:#015051;}
	.st2{display:none;opacity:0.302;}
	.st3{display:inline;}
	.st4{display:none;}
	.st5{fill:#001717;}
	.st6{fill:#016B6B;}
	.st7{fill:#002122;}
	.st8{fill:#013535;}
	.st9{fill:#023333;}
	.st10{fill:#1DD8CA;}
</style>
<g id="After_Effects_1_">
	<g>
		<g id="Frame_8_">
			<g>
				<rect y="0.8" class="st0" width="64" height="62.3"/>
			</g>
		</g>
		<g id="Background_8_">
			<g>
				<rect x="4.9" y="5.8" class="st1" width="54.1" height="52.3"/>
			</g>
		</g>
		<g id="Shadow2_8_" class="st2">
			<g class="st3">
				<polygon points="48.9,27 38.2,29.1 25.7,18.8 20,19.4 11,45.2 28.2,58.2 59,58.2 59,35.1 				"/>
			</g>
		</g>
		<g id="Shadow_9_" class="st2">
			<g class="st3">
				<rect x="4.9" y="5.8" width="54.1" height="1.8"/>
			</g>
		</g>
		<g class="st4">
			<g class="st3">
				<polygon class="st5" points="30.1,26.5 30,26.5 30,22.4 30.1,22.4 30.1,22.4 44.9,32 				"/>
				<polygon class="st5" points="30.1,37.5 30.1,37.5 44.9,32 30.1,41.6 30.1,41.6 30,41.6 30,37.5 				"/>
				<polygon class="st1" points="36.9,16 44.9,32 30.1,22.4 30.1,22.4 30.1,22.4 				"/>
				<polygon class="st1" points="44.9,32 36.9,48 36.9,48 30.1,41.6 30.1,41.6 30.1,41.6 				"/>
				<polygon class="st6" points="30.1,22.4 30.1,22.4 30.1,22.4 30,22.4 19.2,22.4 19.1,22.4 21.8,16 21.8,16 21.8,16 36.9,16 				
					"/>
				<polygon class="st6" points="30.1,22.4 30,22.4 30,22.4 				"/>
				<polygon class="st6" points="30.1,41.6 30.1,41.6 30.1,41.6 30.1,41.6 36.9,48 21.8,48 21.8,48 19.1,41.6 19.2,41.6 30,41.6 
					30,41.7 30,41.6 				"/>
				<polygon class="st1" points="30.1,26.5 44.9,32 44.9,32 30.1,37.5 30.1,37.5 30,37.5 30,37.5 30,32 30,32 30,26.5 30,26.5 				
					"/>
				<path class="st6" d="M30,41.6v0.1V41.6z"/>
				<polygon class="st7" points="30,37.5 30,41.6 30,41.6 26.9,38.7 				"/>
				<polygon class="st6" points="30,37.5 30,37.5 26.9,38.7 19.7,32 19.7,32 26.9,25.3 30,26.5 30,26.5 30,32 30,32 				"/>
				<polygon class="st7" points="30,22.4 30,26.5 26.9,25.3 				"/>
				<polygon class="st8" points="30,22.4 30,22.4 26.9,25.3 19.2,22.4 				"/>
				<polygon class="st8" points="30,41.6 19.2,41.6 26.9,38.7 				"/>
			</g>
		</g>
		<g>
			<g>
				<polygon class="st9" points="30.1,26.5 30,26.5 30,22.4 30.1,22.4 30.1,22.4 44.9,32 				"/>
				<polygon class="st9" points="30.1,37.5 30.1,37.5 44.9,32 30.1,41.6 30.1,41.6 30,41.6 30,37.5 				"/>
				<polygon class="st0" points="36.9,16 44.9,32 30.1,22.4 30.1,22.4 30.1,22.4 				"/>
				<polygon class="st0" points="44.9,32 36.9,48 36.9,48 30.1,41.6 30.1,41.6 30.1,41.6 				"/>
				<polygon class="st10" points="30.1,22.4 30.1,22.4 30.1,22.4 30,22.4 19.2,22.4 19.1,22.4 21.8,16 21.8,16 21.8,16 36.9,16 				
					"/>
				<polygon class="st6" points="30.1,22.4 30,22.4 30,22.4 				"/>
				<polygon class="st10" points="30.1,41.6 30.1,41.6 30.1,41.6 30.1,41.6 36.9,48 21.8,48 21.8,48 19.1,41.6 19.2,41.6 30,41.6 
					30,41.7 30,41.6 				"/>
				<polygon class="st0" points="30.1,26.5 44.9,32 44.9,32 30.1,37.5 30.1,37.5 30,37.5 30,37.5 30,32 30,32 30,26.5 30,26.5 				
					"/>
				<path class="st6" d="M30,41.6v0.1V41.6z"/>
				<polygon class="st9" points="30,37.5 30,41.6 30,41.6 26.9,38.7 				"/>
				<polygon class="st10" points="30,37.5 30,37.5 26.9,38.7 19.7,32 19.7,32 26.9,25.3 30,26.5 30,26.5 30,32 30,32 				"/>
				<polygon class="st9" points="30,22.4 30,26.5 26.9,25.3 				"/>
				<polygon class="st0" points="30,22.4 30,22.4 26.9,25.3 19.2,22.4 				"/>
				<polygon class="st0" points="30,41.6 19.2,41.6 26.9,38.7 				"/>
			</g>
		</g>
	</g>
</g>
</svg>
