<?xml version="1.0" encoding="utf-8"?>
<!-- Generator: Adobe Illustrator 23.0.4, SVG Export Plug-In . SVG Version: 6.00 Build 0)  -->
<svg version="1.1" id="Capa_1" xmlns="http://www.w3.org/2000/svg" xmlns:xlink="http://www.w3.org/1999/xlink" x="0px" y="0px"
	 viewBox="0 0 64 64" style="enable-background:new 0 0 64 64;" xml:space="preserve">
<style type="text/css">
	.st0{fill:#FF4D63;}
	.st1{fill:#7C1F33;}
	.st2{display:none;opacity:0.302;}
	.st3{display:inline;}
</style>
<g id="After_Effects_1_">
	<g>
		<g id="Frame_8_">
			<g>
				<rect y="0.9" class="st0" width="64" height="62.3"/>
			</g>
		</g>
		<g id="Background_8_">
			<g>
				<rect x="4.9" y="5.9" class="st1" width="54.1" height="52.3"/>
			</g>
		</g>
		<g id="Shadow2_8_" class="st2">
			<g class="st3">
				<polygon points="48.9,27.1 38.2,29.2 25.7,18.9 20,19.5 11,45.3 28.2,58.3 59,58.3 59,35.2 				"/>
			</g>
		</g>
		<g id="Shadow_9_" class="st2">
			<g class="st3">
				<rect x="4.9" y="5.9" width="54.1" height="1.8"/>
			</g>
		</g>
		<path class="st0" d="M37,14.7L37,14.7c3.2,2.4,11,8.6,11,8.6s-1.6,14-2.3,19.6c-7.4,2.1-14.8,4.2-22.3,6.3
			c-0.7-2.2-4.8-13.6-4.8-13.6S16.7,22.1,16,17.5C23,16.5,30.1,15.7,37,14.7z M36.5,16.8c-6.1,0.9-12.1,1.6-18.2,2.3
			c0.3,1,0.9,2,1.2,2.9c3.7-0.6,7.7-1.1,11.6-1.6c0.6-0.1,1.3-0.3,1.6-0.3c0.3,0.1,1,0.8,1.3,1.1c1.3,1.4,2.3,2.6,3.7,3.7
			c2.5-0.5,5.1-0.9,7.6-1.4C42.6,21.4,39.4,19,36.5,16.8z M33,25.5c-4.1,0.6-8.3,1.5-12.5,2.2c0.3,1.1,0.8,2.2,1.2,3.3
			c2.3-0.3,4.5-0.9,6.7-1.3c0.7,1,1.1,2.1,1.8,3c2.4-0.5,4.8-1,7.2-1.6C36.1,29.3,34.4,27.3,33,25.5z M29.7,37.2
			c-0.2-0.3-0.6-1.7-1-1.6c-1.7,0.5-4.2,1-6.1,1.4c0.3,1.1,0.8,2.3,1.1,3.5c2.3-0.4,4.5-1.1,6.8-1.6C30.4,38.3,30,37.9,29.7,37.2z"
			/>
	</g>
</g>
</svg>
