<?xml version="1.0" encoding="utf-8"?>
<!-- Generator: Adobe Illustrator 23.0.4, SVG Export Plug-In . SVG Version: 6.00 Build 0)  -->
<svg version="1.1" id="Layer_1" xmlns="http://www.w3.org/2000/svg" xmlns:xlink="http://www.w3.org/1999/xlink" x="0px" y="0px"
	 viewBox="0 0 64 64" style="enable-background:new 0 0 64 64;" xml:space="preserve">
<style type="text/css">
	.st0{fill:#FF8261;}
	.st1{fill:#AA3526;}
	.st2{display:none;opacity:0.302;}
	.st3{display:inline;}
</style>
<g id="After_Effects_1_">
	<g>
		<g id="Frame_8_">
			<g>
				<rect y="0.8" class="st0" width="64" height="62.3"/>
			</g>
		</g>
		<g id="Background_8_">
			<g>
				<rect x="4.9" y="5.8" class="st1" width="54.1" height="52.3"/>
			</g>
		</g>
		<g id="Shadow2_8_" class="st2">
			<g class="st3">
				<polygon points="48.9,27 38.2,29.1 25.7,18.8 20,19.4 11,45.2 28.2,58.2 59,58.2 59,35.1 				"/>
			</g>
		</g>
		<g id="Shadow_9_" class="st2">
			<g class="st3">
				<rect x="4.9" y="5.8" width="54.1" height="1.8"/>
			</g>
		</g>
		<path id="polygon9-62-1-2" class="st0" d="M16,13.4l2.9,33.5L32,50.6l13.1-3.7L48,13.4H16z M22,20.2c6.7,0,13.4,0,20.1,0l-0.1,1
			l-0.2,2l-0.1,1l0,0c-5.1,0-10.2,0-15.3,0l0.4,4.2c4.6,0,9,0,13.6,0h1l-0.1,1l-0.9,10.8L40.2,41L32,43.4l0,0l-8.3-2.3l-0.6-6.4H25
			h2.1l0.3,3.3l4.5,1.2l0,0l0,0l4.5-1.2l0.5-5.3c-4.7,0-9.3,0-14,0l-1-11.3L22,20.2z"/>
	</g>
</g>
</svg>
