<?xml version="1.0" encoding="utf-8"?>
<!-- Generator: Adobe Illustrator 23.0.4, SVG Export Plug-In . SVG Version: 6.00 Build 0)  -->
<svg version="1.1" id="Layer_1" xmlns="http://www.w3.org/2000/svg" xmlns:xlink="http://www.w3.org/1999/xlink" x="0px" y="0px"
	 viewBox="0 0 64 64" style="enable-background:new 0 0 64 64;" xml:space="preserve">
<style type="text/css">
	.st0{fill:#333333;}
	.st1{fill:#CCCCCC;}
	.st2{display:none;opacity:0.302;}
	.st3{display:inline;}
</style>
<g id="After_Effects_1_">
	<g>
		<g id="Frame_8_">
			<g>
				<rect y="0.8" class="st0" width="64" height="62.3"/>
			</g>
		</g>
		<g id="Background_8_">
			<g>
				<rect x="4.9" y="5.8" class="st1" width="54.1" height="52.3"/>
			</g>
		</g>
		<g id="Shadow2_8_" class="st2">
			<g class="st3">
				<polygon points="48.9,27 38.2,29.1 25.7,18.8 20,19.4 11,45.2 28.2,58.2 59,58.2 59,35.1 				"/>
			</g>
		</g>
		<g id="Shadow_9_" class="st2">
			<g class="st3">
				<rect x="4.9" y="5.8" width="54.1" height="1.8"/>
			</g>
		</g>
		<path class="st0" d="M18.3,32c0,5.4,3.1,10.2,7.8,12.3l-6.6-17.9C18.7,28.1,18.3,30,18.3,32z M41.3,31.3c0-1.7-0.6-2.9-1.1-3.8
			c-0.7-1.1-1.4-2.1-1.4-3.2c0-1.3,1-2.5,2.3-2.5c0.1,0,0.1,0,0.2,0c-2.4-2.2-5.7-3.5-9.3-3.5c-4.8,0-9,2.5-11.4,6.2
			c0.3,0,0.6,0,0.9,0c1.4,0,3.7-0.2,3.7-0.2c0.7-0.1,0.9,1,0.1,1.1c0,0-0.7,0.1-1.5,0.2l5,14.9l3-9l-2.2-5.9
			c-0.8-0.1-1.5-0.2-1.5-0.2c-0.7-0.1-0.6-1.2,0.1-1.1c0,0,2.2,0.2,3.6,0.2s3.7-0.2,3.7-0.2c0.7-0.1,0.9,1,0.1,1.1
			c0,0-0.7,0.1-1.5,0.2l5,14.7l1.4-4.6C40.9,33.9,41.3,32.5,41.3,31.3z M32.2,33.2l-4.1,11.9c1.3,0.3,2.6,0.6,3.9,0.6
			c1.6,0,3.1-0.3,4.6-0.8c-0.1-0.1-0.1-0.1-0.1-0.2L32.2,33.2z M44.1,25.4c0.1,0.5,0.1,0.9,0.1,1.4c0,1.4-0.2,3-1,4.9L39,43.8
			c4.1-2.3,6.9-6.7,6.9-11.8C45.8,29.6,45.1,27.4,44.1,25.4z M16,32c0,8.8,7.2,16,16,16s16-7.2,16-16s-7.2-16-16-16S16,23.2,16,32z
			 M16.7,32c0-8.4,6.9-15.3,15.3-15.3S47.3,23.6,47.3,32S40.4,47.3,32,47.3S16.7,40.4,16.7,32z"/>
	</g>
</g>
</svg>
