<?xml version="1.0" encoding="utf-8"?>
<!-- Generator: Adobe Illustrator 23.0.4, SVG Export Plug-In . SVG Version: 6.00 Build 0)  -->
<svg version="1.1" id="Layer_1" xmlns="http://www.w3.org/2000/svg" xmlns:xlink="http://www.w3.org/1999/xlink" x="0px" y="0px"
	 viewBox="0 0 64 64" style="enable-background:new 0 0 64 64;" xml:space="preserve">
<style type="text/css">
	.st0{fill:#3EDEAC;}
	.st1{fill:#334C4D;}
	.st2{display:none;opacity:0.302;}
	.st3{display:inline;}
</style>
<g id="Audition_1_">
	<g>
		<g id="Frame_9_">
			<g>
				<rect y="0.8" class="st0" width="64" height="62.3"/>
			</g>
		</g>
		<g id="Background_9_">
			<g>
				<rect x="4.9" y="5.8" class="st1" width="54.1" height="52.3"/>
			</g>
		</g>
		<g id="Shadow2_9_" class="st2">
			<g class="st3">
				<polygon points="51.6,26.4 48,32.3 40.5,26.4 38,29.1 25.5,18.9 20,19.4 12.3,45.3 29.4,58.2 59,58.2 59,32.3 				"/>
			</g>
		</g>
		<g id="Shadow_10_" class="st2">
			<g class="st3">
				<rect x="4.9" y="5.8" width="54.1" height="1.8"/>
			</g>
		</g>
		<g id="Au">
			<g>
				<path class="st0" d="M18.8,37.8l-2,7.5h-4.5l7.6-26.4h5.5l7.7,26.4h-4.7l-2.2-7.5H18.8z M25.6,34.2l-1.9-6.5
					c-0.5-1.6-0.8-3.4-1.2-4.9h-0.1c-0.4,1.5-0.7,3.4-1.1,4.9l-1.8,6.5H25.6z"/>
				<path class="st0" d="M51.6,39.6c0,2.3,0.1,4.2,0.1,5.7h-3.8l-0.2-2.9h-0.1c-0.7,1.4-2.4,3.3-5.5,3.3s-6-2.1-6-8.3V26.2h4.3v10.4
					c0,3.2,0.9,5.2,3.2,5.2c1.7,0,2.9-1.4,3.3-2.6c0.1-0.4,0.2-0.9,0.2-1.5V26.2h4.3L51.6,39.6L51.6,39.6z"/>
			</g>
		</g>
	</g>
</g>
</svg>
