<?xml version="1.0" encoding="utf-8"?>
<!-- Generator: Adobe Illustrator 23.0.4, SVG Export Plug-In . SVG Version: 6.00 Build 0)  -->
<svg version="1.1" id="Layer_1" xmlns="http://www.w3.org/2000/svg" xmlns:xlink="http://www.w3.org/1999/xlink" x="0px" y="0px"
	 viewBox="0 0 64 64" style="enable-background:new 0 0 64 64;" xml:space="preserve">
<style type="text/css">
	.st0{fill:#C88FFF;}
	.st1{fill:#312963;}
	.st2{display:none;opacity:0.302;}
	.st3{display:inline;}
</style>
<g id="After_Effects_1_">
	<g>
		<g id="Frame_8_">
			<g>
				<rect y="0.8" class="st0" width="64" height="62.3"/>
			</g>
		</g>
		<g id="Background_8_">
			<g>
				<rect x="4.9" y="5.8" class="st1" width="54.1" height="52.3"/>
			</g>
		</g>
		<g id="Shadow2_8_" class="st2">
			<g class="st3">
				<polygon points="48.9,27 38.2,29.1 25.7,18.8 20,19.4 11,45.2 28.2,58.2 59,58.2 59,35.1 				"/>
			</g>
		</g>
		<g id="Shadow_9_" class="st2">
			<g class="st3">
				<rect x="4.9" y="5.8" width="54.1" height="1.8"/>
			</g>
		</g>
		<g id="Ae">
			<g>
				<path class="st0" d="M18.4,37.7l-2.3,7.5h-5l8.5-26.4h6.2l8.6,26.4h-5.2l-2.4-7.5H18.4z M25.9,34.1l-2.1-6.5
					c-0.5-1.6-0.9-3.4-1.3-4.9h-0.1c-0.4,1.5-0.8,3.4-1.3,4.9l-2,6.5H25.9z"/>
				<path class="st0" d="M39.7,37c0.1,3.4,2.8,4.9,5.9,4.9c2.2,0,3.8-0.3,5.3-0.9l0.7,3.3c-1.6,0.7-3.9,1.2-6.7,1.2
					c-6.2,0-9.8-3.8-9.8-9.6c0-5.3,3.2-10.3,9.3-10.3c6.2,0,8.2,5.1,8.2,9.3c0,0.9-0.1,1.6-0.2,2L39.7,37L39.7,37z M48,33.6
					c0-1.8-0.7-4.7-4-4.7c-3,0-4.2,2.7-4.4,4.7H48z"/>
			</g>
		</g>
	</g>
</g>
</svg>
