<?xml version="1.0" encoding="utf-8"?>
<!-- Generator: Adobe Illustrator 23.0.4, SVG Export Plug-In . SVG Version: 6.00 Build 0)  -->
<svg version="1.1" id="Layer_1" xmlns="http://www.w3.org/2000/svg" xmlns:xlink="http://www.w3.org/1999/xlink" x="0px" y="0px"
	 viewBox="0 0 64 64" style="enable-background:new 0 0 64 64;" xml:space="preserve">
<style type="text/css">
	.st0{fill:#5FFFFB;}
	.st1{fill:#009183;}
	.st2{display:none;opacity:0.302;}
	.st3{display:inline;}
</style>
<g id="After_Effects_1_">
	<g>
		<g id="Frame_8_">
			<g>
				<rect x="0" y="0.8" class="st0" width="64" height="62.3"/>
			</g>
		</g>
		<g id="Background_8_">
			<g>
				<rect x="4.9" y="5.8" class="st1" width="54.1" height="52.3"/>
			</g>
		</g>
		<g id="Shadow2_8_" class="st2">
			<g class="st3">
				<polygon points="48.9,27 38.2,29.1 25.7,18.8 20,19.4 11,45.2 28.2,58.2 59,58.2 59,35.1 				"/>
			</g>
		</g>
		<g id="Shadow_9_" class="st2">
			<g class="st3">
				<rect x="4.9" y="5.8" width="54.1" height="1.8"/>
			</g>
		</g>
		<g>
			<circle class="st0" cx="32" cy="31.9" r="2.9"/>
			<g>
				<path class="st0" d="M32,38.5c-4,0-7.5-0.4-10.1-1.4c-1.7-0.6-3.1-1.4-4.2-2.3c-1.1-0.9-1.6-1.9-1.6-2.9c0-1.9,2.1-3.8,5.6-4.9
					c2.9-1,6.6-1.6,10.5-1.6c3.8,0,7.5,0.6,10.3,1.5c1.6,0.6,3.1,1.3,4.1,2.1C47.5,30,48,31,48,31.9c0,1.9-2.3,3.9-6.1,5.2
					C39.3,38.1,35.8,38.5,32,38.5z M32,26.9c-3.7,0-7.3,0.6-10,1.4c-3.2,1.1-4.6,2.6-4.6,3.6c0,1.1,1.6,2.8,4.9,3.9
					c2.5,0.9,5.8,1.3,9.7,1.3c3.6,0,7-0.4,9.5-1.3c3.5-1.1,5.1-2.9,5.1-3.9c0-0.6-0.4-1.2-1.1-1.8c-0.9-0.7-2.1-1.4-3.6-1.9
					C39.2,27.4,35.6,26.9,32,26.9z"/>
			</g>
			<g>
				<path class="st0" d="M25.5,46.2c-0.6,0-1.1-0.1-1.6-0.4c-1.6-0.9-2.2-3.6-1.5-7.3c0.6-2.9,1.9-6.4,3.9-9.8
					c1.9-3.3,4.2-6.2,6.4-8.1c1.3-1.1,2.6-2,3.8-2.4c1.3-0.5,2.4-0.5,3.3,0c1.7,1,2.3,4,1.4,7.8c-0.6,2.8-1.9,6.1-3.8,9.3
					c-2,3.4-4.1,6.3-6.3,8.1c-1.4,1.2-2.8,2.1-4.1,2.5C26.7,46.1,26.1,46.2,25.5,46.2z M27,29.2l0.6,0.4c-1.9,3.2-3.2,6.6-3.8,9.4
					c-0.6,3.3,0,5.3,0.9,5.8c0.2,0.1,0.5,0.2,0.9,0.2c1.1,0,2.9-0.7,5-2.5c2-1.8,4.1-4.4,6-7.8c1.8-3.1,3.1-6.3,3.6-8.9
					c0.8-3.6,0.1-5.8-0.8-6.4c-0.4-0.3-1.2-0.3-2.1,0.1c-1.1,0.4-2.3,1.1-3.4,2.2c-2.1,1.9-4.3,4.6-6.1,7.8L27,29.2z"/>
			</g>
			<g>
				<path class="st0" d="M38.5,46.3c-1.6,0-3.5-0.9-5.6-2.7c-2.3-1.9-4.6-4.9-6.6-8.3l0,0c-1.9-3.3-3.3-6.8-3.8-9.7
					c-0.4-1.7-0.4-3.3-0.2-4.6c0.3-1.4,0.8-2.4,1.6-2.9c1.7-1,4.6,0.1,7.5,2.6c2.1,1.9,4.3,4.6,6.1,7.9c2,3.4,3.3,6.8,3.9,9.5
					c0.4,1.8,0.4,3.4,0.1,4.8c-0.3,1.4-0.9,2.4-1.7,2.9C39.6,46.1,39.1,46.3,38.5,46.3z M27.6,34.6c1.9,3.2,4.1,6.1,6.3,7.9
					c2.6,2.2,4.6,2.7,5.5,2.2c0.9-0.6,1.6-2.7,0.9-6.2c-0.5-2.6-1.8-5.7-3.8-9.1c-1.8-3.1-3.9-5.8-5.9-7.6c-2.8-2.4-5-3-5.9-2.5
					c-0.4,0.3-0.8,0.9-1,1.9c-0.2,1.1-0.1,2.5,0.2,4.1C24.4,28.1,25.7,31.4,27.6,34.6L27.6,34.6z"/>
			</g>
		</g>
	</g>
</g>
</svg>
