<svg height="512pt" viewBox="-142 0 512 512" width="512pt" xmlns="http://www.w3.org/2000/svg"><path d="m114.433594 303.8125c-36.976563 0-67.054688-30.082031-67.054688-67.054688v-169.703124c0-36.972657 30.082032-67.054688 67.054688-67.054688 36.976562 0 67.058594 30.082031 67.058594 67.054688v169.703124c0 36.972657-30.082032 67.054688-67.058594 67.054688zm0 0" fill="#f2f6fc"/><path d="m181.492188 236.757812v-169.703124c0-36.972657-30.082032-67.054688-67.058594-67.054688v303.8125c36.976562 0 67.058594-30.082031 67.058594-67.054688zm0 0" fill="#dce1eb"/><path d="m125.121094 159.871094 56.371094-55.441406v-37.375c0-1.738282-.089844-3.453126-.21875-5.160157l-77.523438 76.246094zm0 0" fill="#cdd2e1"/><path d="m125.121094 243.097656 56.371094-55.441406v-42.753906l-77.742188 76.464844zm0 0" fill="#cdd2e1"/><path d="m47.378906 146.242188 56.28125 56.28125 21.550782-21.550782-77.832032-77.832031zm0 0" fill="#dce1eb"/><path d="m114.433594 357.539062c-8.414063 0-15.238282-6.824218-15.238282-15.238281v-246.125c0-8.414062 6.824219-15.238281 15.238282-15.238281 8.417968 0 15.238281 6.824219 15.238281 15.238281v246.125c0 8.414063-6.820313 15.238281-15.238281 15.238281zm0 0" fill="#cdd2e1"/><path d="m129.671875 342.300781v-246.125c0-8.414062-6.820313-15.238281-15.238281-15.238281v276.601562c8.417968 0 15.238281-6.824218 15.238281-15.238281zm0 0" fill="#afb4c8"/><path d="m186.136719 512h-143.40625c-23.558594 0-42.730469-19.167969-42.730469-42.730469v-49.632812c0-23.5625 19.167969-42.730469 42.730469-42.730469 9.636719 0 17.472656-7.839844 17.472656-17.472656v-17.132813c0-8.417969 6.824219-15.242187 15.238281-15.242187h77.984375c8.414063 0 15.238281 6.824218 15.238281 15.242187v17.132813c0 9.632812 7.839844 17.472656 17.472657 17.472656 23.5625 0 42.730469 19.167969 42.730469 42.730469v49.632812c0 23.5625-19.167969 42.730469-42.730469 42.730469zm0 0" fill="#3d7ed9"/><g fill="#0053bf"><path d="m186.578125 357.539062h-144.285156c-8.414063 0-15.238281-6.824218-15.238281-15.238281 0-8.417969 6.824218-15.242187 15.238281-15.242187h144.285156c8.414063 0 15.238281 6.824218 15.238281 15.242187 0 8.414063-6.824218 15.238281-15.238281 15.238281zm0 0"/><path d="m162.1875 457.109375h-95.507812c-8.414063 0-15.238282-6.824219-15.238282-15.238281 0-8.417969 6.824219-15.242188 15.238282-15.242188h95.507812c8.414062 0 15.238281 6.824219 15.238281 15.242188 0 8.414062-6.820312 15.238281-15.238281 15.238281zm0 0"/><path d="m186.136719 376.90625c-9.632813 0-17.472657-7.835938-17.472657-17.46875v-17.136719c0-8.417969-6.820312-15.242187-15.238281-15.242187h-38.992187v184.941406h71.703125c23.5625 0 42.734375-19.167969 42.734375-42.730469v-49.632812c-.003906-23.5625-19.171875-42.730469-42.734375-42.730469zm0 0"/></g><path d="m162.1875 426.628906h-47.753906v30.480469h47.753906c8.414062 0 15.238281-6.824219 15.238281-15.238281 0-8.417969-6.820312-15.242188-15.238281-15.242188zm0 0" fill="#27488f"/><path d="m186.578125 327.058594h-72.144531v30.480468h72.144531c8.414063 0 15.238281-6.824218 15.238281-15.238281 0-8.417969-6.824218-15.242187-15.238281-15.242187zm0 0" fill="#27488f"/></svg>