<svg id="Capa_1" enable-background="new 0 0 512 512" height="512" viewBox="0 0 512 512" width="512" xmlns="http://www.w3.org/2000/svg"><path d="m256 0c-114.695 0-208.006 93.312-208.006 208.006v13.977c0 52.101 42.387 94.488 94.488 94.488h28.55v101.041c0 52.101 42.388 94.488 94.489 94.488h17.875c99.589 0 180.611-81.021 180.611-180.611v-123.383c-.001-114.694-93.312-208.006-208.007-208.006zm50.314 416.484c0 21.632-17.599 39.23-39.23 39.23-21.632 0-39.23-17.599-39.23-39.23v-45.207c0-21.631 17.599-39.23 39.23-39.23s39.23 17.599 39.23 39.23z" fill="#bb997b"/><path d="m267.084.296v331.751c21.631 0 39.23 17.599 39.23 39.23v45.207c0 21.632-17.599 39.23-39.23 39.23v56.286h16.311c99.589 0 180.611-81.021 180.611-180.611v-123.383c0-110.976-87.36-201.929-196.922-207.71z" fill="#9f7655"/><circle cx="392.698" cy="313.783" fill="#e6c897" r="42.709"/><circle cx="386.311" cy="202.8" fill="#fecb2e" r="42.709"/><circle cx="333.521" cy="105.818" fill="#89c1eb" r="42.709"/><ellipse cx="223.375" cy="74.081" fill="#92e170" rx="42.709" ry="42.709" transform="matrix(.987 -.16 .16 .987 -8.982 36.737)"/><circle cx="137.689" cy="143.472" fill="#fc445f" r="42.709"/></svg>