<?xml version="1.0" encoding="iso-8859-1"?>
<!-- Generator: Adobe Illustrator 19.0.0, SVG Export Plug-In . SVG Version: 6.00 Build 0)  -->
<svg version="1.1" id="Capa_1" xmlns="http://www.w3.org/2000/svg" xmlns:xlink="http://www.w3.org/1999/xlink" x="0px" y="0px"
	 viewBox="0 0 512 512" style="enable-background:new 0 0 512 512;" xml:space="preserve">
<path style="fill:#027372;" d="M354,340c70.028,0,127,56.972,127,127v45H256l-40-104L354,340z"/>
<path style="fill:#FFC1A6;" d="M396,140v30c0,77.2-62.8,140-140,140V0C333.2,0,396,62.8,396,140z"/>
<path style="fill:#013A3A;" d="M226,408l98-68h30c0,54.038-43.963,98-98,98L226,408z"/>
<path style="fill:#ABECEC;" d="M256,340h68c0,37.56-30.44,68-68,68V340z"/>
<path style="fill:#02ACAB;" d="M158,340c-70.028,0-127,56.972-127,127v45h225V408L158,340z"/>
<path style="fill:#027372;" d="M256,438c-54.037,0-98-43.962-98-98h30l68,68V438z"/>
<path style="fill:#D5F6F5;" d="M256,340v68c-37.56,0-68-30.44-68-68H256z"/>
<path style="fill:#FFDBCC;" d="M256,0v310c-77.2,0-140-62.8-140-140v-30C116,62.8,178.8,0,256,0z"/>
<rect x="176" y="125" style="fill:#4D4D4D;" width="50" height="30"/>
<rect x="286" y="125" width="50" height="30"/>
<g>
</g>
<g>
</g>
<g>
</g>
<g>
</g>
<g>
</g>
<g>
</g>
<g>
</g>
<g>
</g>
<g>
</g>
<g>
</g>
<g>
</g>
<g>
</g>
<g>
</g>
<g>
</g>
<g>
</g>
</svg>
