<svg viewBox="0 -136 512 512" xmlns="http://www.w3.org/2000/svg"><path d="m121 0c-66.300781 0-121 53.699219-121 120s54.699219 120 121 120 120-53.699219 120-120-53.699219-120-120-120zm0 0" fill="#7984eb"/><path d="m241 120c0 66.300781-53.699219 120-120 120v-240c66.300781 0 120 53.699219 120 120zm0 0" fill="#4661d1"/><path d="m391 0c-66.300781 0-120 53.699219-120 120s53.699219 120 120 120 121-53.699219 121-120-54.699219-120-121-120zm0 0" fill="#ff7cb9"/><path d="m512 120c0 66.300781-54.699219 120-121 120v-240c66.300781 0 121 53.699219 121 120zm0 0" fill="#ff5ca8"/></svg>