<svg viewBox="0 0 512 512" xmlns="http://www.w3.org/2000/svg"><path d="m256 0c-140.699219 0-256 115.300781-256 256s115.300781 256 256 256 256-115.300781 256-256-115.300781-256-256-256zm0 0" fill="#ff5ca8"/><path d="m512 256c0 140.699219-115.300781 256-256 256v-512c140.699219 0 256 115.300781 256 256zm0 0" fill="#ff3997"/><path d="m256 30c-124.199219 0-226 101.800781-226 226s101.800781 226 226 226 226-101.800781 226-226-101.800781-226-226-226zm0 0" fill="#ff7cb9"/><path d="m482 256c0 124.199219-101.800781 226-226 226v-452c124.199219 0 226 101.800781 226 226zm0 0" fill="#ff5ca8"/><path d="m500.898438 257.199219-9 28.800781c-31.796876-9.902344-66.398438-15-100.898438-15-23.402344 0-45.902344 2.402344-67.800781 6.898438 21.300781 63.601562 34.199219 131.800781 37.199219 201.402343l-30 1.199219c-3-67.5-15.597657-133.597656-36.296876-195.101562-13.203124 3.902343-26.101562 8.703124-38.101562 14.402343-68.699219 31.199219-119.398438 86.199219-132 150.097657l-29.398438-5.699219c15.597657-78.898438 77.398438-144.398438 161.398438-178 9-3.601563 18-6.597657 27.597656-9.597657-5.097656-12.902343-10.496094-25.5-16.5-38.101562-3.597656 1.199219-7.5 2.101562-11.097656 3-45.601562 12.601562-96.597656 19.5-150 19.5-30.300781 0-61.601562-2.101562-90.398438-6.597656l4.5-29.703125c27.300782 4.199219 57.097657 6.300781 85.898438 6.300781 52.800781 0 103.5-7.199219 148.199219-20.097656-27.597657-53.101563-62.398438-103.003906-103.800781-145.902344l21.601562-21c31.800781 33 59.699219 69.601562 84 108.898438 9.601562 15.601562 18.601562 32.5 27 49.003906 64.199219-23.101563 113.199219-59.5 131.199219-101.203125l27.601562 12c-21.300781 48.898437-75.101562 90.402343-145.898437 116.5 6 13.199219 11.699218 26.402343 16.796875 39.902343 24.898437-5.101562 51.300781-8.101562 78.300781-8.101562 37.5 0 75.097656 5.398438 109.898438 16.199219zm0 0" fill="#ff5ca8"/><path d="m500.898438 257.199219-9 28.800781c-31.796876-9.902344-66.398438-15-100.898438-15-23.402344 0-45.902344 2.402344-67.800781 6.898438 21.300781 63.601562 34.199219 131.800781 37.199219 201.402343l-30 1.199219c-3-67.5-15.597657-133.597656-36.296876-195.101562-13.203124 3.902343-26.101562 8.703124-38.101562 14.402343v-33.601562c9-3.601563 17.996094-6.601563 27.597656-9.597657-5.097656-12.902343-10.5-25.503906-16.5-38.101562-3.601562 1.199219-7.5 2.097656-11.101562 2.996094v-88.597656c9.601562 15.601562 18.601562 32.5 27.003906 49.003906 64.199219-23.101563 113.199219-59.5 131.199219-101.203125l27.601562 12c-21.300781 48.898437-75.101562 90.402343-145.898437 116.5 6 13.199219 11.699218 26.402343 16.796875 39.902343 24.898437-5.101562 51.300781-8.101562 78.300781-8.101562 37.5 0 75.097656 5.398438 109.898438 16.199219zm0 0" fill="#ff3997"/></svg>